<?xml version="1.0" encoding="utf-8"?>
<svg data-name="Layer 1" xmlns="http://www.w3.org/2000/svg" viewBox="0 0 60 60.03" class="astro-BOSWA4FD">
  <path class="cls-1 astro-BOSWA4FD" d="M0 51.92v-2a1.4 1.4 0 0 0 .1-.21 7.58 7.58 0 0 1 7.34-6.14 8.4 8.4 0 0 0 2.18-.37A6.39 6.39 0 0 0 14 36.77V16.83h11.28c-.05.21-.08.34-.12.47a11.2 11.2 0 0 0 4.71 13.51.77.77 0 0 1 .42.74v6.09a3.94 3.94 0 0 0 4.27 4.22h2.34a3.92 3.92 0 0 0 4.25-4.23v-5.8a1.18 1.18 0 0 1 .64-1.15A11 11 0 0 0 46.89 20a26 26 0 0 0-.61-3h.38c2.91 0 5.82 0 8.73.11A4.65 4.65 0 0 1 60 22v31.64a5.6 5.6 0 0 1-.51 2.25 4.72 4.72 0 0 1-4.63 2.69H7.8A7.32 7.32 0 0 1 1 54.71a17 17 0 0 1-1-2.79m52.18-30.06h1.93a1 1 0 1 0 0-2h-3.87a1 1 0 0 0-1 1 1 1 0 0 0 1.12 1c.64.01 1.21 0 1.82 0m-33 0h1.87c.62 0 1.08-.39 1.08-1a1 1 0 0 0-1.05-1h-3.81a1 1 0 0 0-1.05 1c0 .57.4.95 1.08 1s1.28-.01 1.91-.01Z" style="fill: rgb(209, 215, 224);"/>
  <path class="cls-1 astro-BOSWA4FD" d="M0 13.37a18 18 0 0 1 1.11-3 7 7 0 0 1 6-3.63A4.48 4.48 0 0 1 12 11v25.75a4.39 4.39 0 0 1-2.55 4.35 5.5 5.5 0 0 1-2.09.48 9.77 9.77 0 0 0-7 3.3 2.4 2.4 0 0 1-.31.25Zm39.14 19.05H36.7v-5.21a.64.64 0 0 1 .38-.69 2.93 2.93 0 0 0 1.53-3.4 3 3 0 1 0-4.28 3.42c.15.09.35.29.36.44v5.42h-2.41v-1.47a1.49 1.49 0 0 0-.92-1.57 9.24 9.24 0 1 1 8.5.11 1.17 1.17 0 0 0-.73 1.2c.02.57.01 1.13.01 1.75M39.12 38a1.76 1.76 0 0 1-1.7 1.8q-1.7.06-3.39 0a1.84 1.84 0 0 1-1.77-1.8ZM36.7 4.45v1.93a1 1 0 1 1-2 .08v-4a1 1 0 0 1 1-1 1 1 0 0 1 .93 1.07c.08.63.07 1.28.07 1.92M22.77 6.72a5 5 0 0 1 .83.51c.89.85 1.76 1.72 2.61 2.6a1 1 0 0 1 .08 1.46 1 1 0 0 1-1.5-.07c-.88-.85-1.74-1.73-2.6-2.6A.93.93 0 0 1 22 7.4a4.4 4.4 0 0 1 .77-.68m22.97 4.98c-.27-.22-.64-.39-.74-.66a1.14 1.14 0 0 1 .08-1A41 41 0 0 1 48 7.08a1 1 0 0 1 1.34 1.4c-.92 1-1.88 1.92-2.84 2.85a3 3 0 0 1-.76.37m-6.62 22.77V36h-6.8v-1.53Z" style="fill: rgb(209, 215, 224);"/>
  <path class="cls-1 astro-BOSWA4FD" d="M35.73 24.86a1 1 0 0 1-1-1 1 1 0 0 1 1-1 1 1 0 0 1 1 1 1 1 0 0 1-1 1" style="fill: rgb(209, 215, 224);"/>
</svg>