<?xml version="1.0" encoding="utf-8"?>
<svg data-name="Layer 1" xmlns="http://www.w3.org/2000/svg" viewBox="0 0 60 60.04" class="astro-BOSWA4FD" version="1.1">
  <path class="cls-1 astro-BOSWA4FD" d="M21.58 60v-1.4c0-2.25-.09-4.51.12-6.74a8.28 8.28 0 0 1 7.62-7.4 8.39 8.39 0 0 1 8.75 6.14 8 8 0 0 1 .32 2.07v7.38ZM4.85 60c-.24-2.87 0-5.56 2-7.84a8.41 8.41 0 0 1 12-.76 1.12 1.12 0 0 1 .38.69v7.66a2 2 0 0 1-.05.25Zm50.42 0H40.85v-7.86a1.06 1.06 0 0 1 .34-.7 8 8 0 0 1 8.29-1.79A7.93 7.93 0 0 1 55 56a29 29 0 0 1 .27 4M25.21 37.23a4.79 4.79 0 1 1 9.58.06 4.79 4.79 0 0 1-9.58-.06m-12.03.02A4.8 4.8 0 1 1 8.38 42a4.82 4.82 0 0 1 4.8-4.75m33.65 0A4.8 4.8 0 1 1 42 42a4.8 4.8 0 0 1 4.83-4.75m-18.76-21.7a1 1 0 0 1-1 1.26H26v1.23a.94.94 0 1 1-1.92-.04v-1.16h-1.17a.94.94 0 0 1-.91-1.43 1 1 0 0 1 .94-.5h1.11v-1.19a.94.94 0 1 1 1.87 0v1.18h1.09a1 1 0 0 1 1.06.65m7.84 2.17a1.56 1.56 0 1 1-1.57-1.56 1.6 1.6 0 0 1 1.57 1.56M38.39 14a1.56 1.56 0 1 1-1.56-1.57A1.59 1.59 0 0 1 38.39 14" style="fill: rgb(209, 215, 224);"/>
  <path class="cls-1 astro-BOSWA4FD" d="M0 34.71a2.38 2.38 0 0 0 2.56 2.54h4.79a1.36 1.36 0 0 0 .84-.36 7.16 7.16 0 0 1 10 0c.15.14.33.36.49.37h4.11c.49-4.23 3.09-7 6.7-7.17a7.1 7.1 0 0 1 4.94 1.48 7.26 7.26 0 0 1 2.82 5.7h3.69a1.53 1.53 0 0 0 .91-.37 7.19 7.19 0 0 1 10 0 1.42 1.42 0 0 0 .91.37h4.29c2.15 0 3-.83 3-3V3.22A3.22 3.22 0 0 0 56.78 0H3.26A3.22 3.22 0 0 0 0 3.22Zm41-10a4 4 0 0 1-4.62.62 3.88 3.88 0 0 1-2.14-2.58c-.2-.69-.2-.69-.93-.69h-7.08c-.23 0-.32.06-.37.29a4.32 4.32 0 0 1-1.48 2.49 4.16 4.16 0 0 1-5.75-.48 4.1 4.1 0 0 1-1-3.54c.41-2.48.82-5 1.25-7.44a5.22 5.22 0 0 1 2-3.45 4.8 4.8 0 0 1 1.64-.72 29.2 29.2 0 0 1 5.89-.76h1.51a32 32 0 0 1 7.48.77 4.49 4.49 0 0 1 3.31 3 19 19 0 0 1 .62 2.82c.35 2 .71 4 1 5.94A4 4 0 0 1 41 24.72Z" style="fill: rgb(209, 215, 224);"/>
</svg>